# xmcd
#
# Track frame offsets:
#  150
#  12287
#  27140
#  37345
#  47550
#  58337
#  70627
#  82652
#  92152
#  105027
#  116487
#  127220
#  137762
#
# Disc length: 1946 seconds
#
# Revision: 0
# Processed by: cddbd v1.5.1PL2 Copyright (c) Steve Scherf et al.
# Submitted via: Collectorz.com_Music_Collector 6.11
#
DISCID=a607980d
DTITLE=Warner, Trev and Kym - High Rollin' Bluegrass
DYEAR=1997
DGENRE=Bluegrass
TTITLE0=Rockhearts
TTITLE1=Walking In My Sleep
TTITLE2=Bound For Glory
TTITLE3=Mando On The Mainland
TTITLE4=Money In The Bank
TTITLE5=Weary Heart You Stole Away
TTITLE6=Look For Me And I'll Be There
TTITLE7=High Rollin'
TTITLE8=Another Lonely Night
TTITLE9=Loser's Game
TTITLE10=Bic Sciota
TTITLE11=Swampassaurus
TTITLE12=Gone And Left Me Blues
EXTD=
EXTT0=
EXTT1=
EXTT2=
EXTT3=
EXTT4=
EXTT5=
EXTT6=
EXTT7=
EXTT8=
EXTT9=
EXTT10=
EXTT11=
EXTT12=
PLAYORDER=
